<svg xmlns="http://www.w3.org/2000/svg" version="1.1" xmlns:xlink="http://www.w3.org/1999/xlink" xmlns:svgjs="http://svgjs.dev/svgjs" width="100%" height="100%" viewBox="0 0 1000 600"><rect width="1000" height="600" x="0" y="0" fill="#2b3252"/><g><circle r="166.66666666666666" cx="319.7212778727213" cy="341.943521663621" fill="#fad744" transform="matrix(0.8167019808744986,0,0,0.8167019808744986,0,20.734061733324808)"/><path d="M307.4844316619063 322.54994008860683Q310.9512508233485 295.8451350628437 323.6858043767652 281.39433439980223Q336.4203579301818 266.9435337367607 357.15262301445034 266.9435337367607Q377.9192130409115 266.9435337367607 377.9192130409115 281.29135957322467L377.9192130409115 281.29135957322467Q377.9192130409115 290.902343387124 373.35399572930925 298.9343798601685Q368.7887784177071 306.9664163332129 361.1343163087801 312.4240821418201L361.1343163087801 312.4240821418201Q346.03134174408115 322.54994008860683 325.7796258505075 327.01218257363155L325.7796258505075 327.01218257363155Q320.83683417478784 369.5064610079437 311.191525418696 387.80165519654497L311.191525418696 387.80165519654497Q333.94896209232195 395.45611730547193 341.8436987965964 397.54993877921424Q349.7384355008709 399.64376025295667 358.52562070215026 399.64376025295667Q367.31280590342965 399.64376025295667 370.50502552733195 392.5041722769171Q373.73157009342674 385.3302593586851 375.2075426077041 385.3302593586851L375.2075426077041 385.3302593586851Q378.1594876362589 385.3302593586851 378.1594876362589 389.03735311547484L378.1594876362589 389.03735311547484Q378.1594876362589 400.63918357653904 369.5096022037495 408.8085198183535Q360.85971677124013 416.94353111797545 350.7338588244533 416.94353111797545L350.7338588244533 416.94353111797545Q340.36772628231904 416.94353111797545 331.9581154451571 413.5110368987257Q323.54850460799514 410.04421773728336 321.31738336548284 409.048794413701Q319.12058706516297 408.0533710901185 312.32424851104844 404.86115146621626Q305.5279099569339 401.6346069001214 302.7819145815341 400.39890898119154L302.7819145815341 400.39890898119154Q293.41120536298223 410.28449233263086 277.5874070122408 410.28449233263086L277.5874070122408 410.28449233263086Q271.1686428222438 410.28449233263086 266.22585114652406 405.58197525225876Q261.28305947080446 400.87945817188654 261.28305947080446 394.46069398188945L261.28305947080446 394.46069398188945Q261.28305947080446 380.3874676829654 277.3471324168933 380.3874676829654L277.3471324168933 380.3874676829654Q284.24644579758535 380.3874676829654 296.60342498688453 383.57968730686775L296.60342498688453 383.57968730686775Q301.3059420672567 368.7513122797087 306.48900833832386 329.7238530068389L306.48900833832386 329.7238530068389Q303.7773379051165 329.9641276021864 299.2121205935143 329.9641276021864Q294.64690328191216 329.9641276021864 294.64690328191216 328.48815508790904L294.64690328191216 328.48815508790904Q294.64690328191216 323.7856380075368 307.4844316619063 322.54994008860683L307.4844316619063 322.54994008860683ZM326.5347745787425 319.8382696553996Q342.3242479872914 316.37145049395735 352.5874057028482 308.09913942556534Q362.850563418405 299.82682835717344 362.850563418405 286.4744258442919Q362.850563418405 273.1220233314102 353.7201287952006 273.1220233314102L353.7201287952006 273.1220233314102Q333.67436255478196 273.1220233314102 326.5347745787425 319.8382696553996L326.5347745787425 319.8382696553996ZM290.9398095251224 395.21584271012443L290.9398095251224 395.21584271012443Q276.5919836886584 389.03735311547484 273.2624642959861 389.03735311547484Q269.93294490331385 389.03735311547484 269.93294490331385 392.5041722769171Q269.93294490331385 395.9366664961668 273.0221897006386 398.4080623340267Q276.1114344979634 400.87945817188654 281.0542261736831 400.87945817188654Q285.9970178494027 400.87945817188654 290.9398095251224 395.21584271012443Z " fill="#2b3252" transform="matrix(0.8167019808744986,0,0,0.8167019808744986,0,20.734061733324808)"/><path d="M644.0758781281734 301.10403754237893L644.0758781281734 301.10403754237893L644.9464003538401 341.2981499619617Q644.9464003538401 413.9117107856889 595.2365794674854 413.9117107856889L595.2365794674854 413.9117107856889Q585.5107449462421 413.9117107856889 577.6160088996772 409.378991610665Q569.7212728531124 404.84627243564114 569.7212728531124 395.3305639688691L569.7212728531124 395.3305639688691Q569.7212728531124 389.47705245145414 572.7530916390556 385.6947834709706Q575.7849104249988 381.91251449048707 580.8579537400917 381.91251449048707Q585.9309970551847 381.91251449048707 585.9309970551847 384.3139551130164L585.9309970551847 384.3139551130164Q585.9309970551847 385.3946033931545 584.6402227205751 388.5164762024425Q583.3494483859657 391.6383490117304 583.3494483859657 394.79023982880005Q583.3494483859657 397.91211263808805 587.0116453353228 401.4842555641003Q590.7038602924615 405.05639849011243 598.0582721989572 405.05639849011243Q605.3826660976713 405.05639849011243 610.785907498362 402.02457970416924Q616.1891488990527 398.99276091822617 619.4310937394672 393.0491953774664Q622.6730385798817 387.1056298367065 624.7442811168131 380.83186621034895Q626.785505645963 374.5881205917731 627.6560278716297 365.07241212500094L627.6560278716297 365.07241212500094Q628.9468022062392 351.023984483205 628.9468022062392 333.1932878609257Q628.9468022062392 315.36259123864625 629.3970723229635 303.68558621159787L629.3970723229635 303.68558621159787Q601.7204691483142 308.42843144109304 601.7204691483142 327.4598483746371L601.7204691483142 327.4598483746371Q601.7204691483142 332.8630897753279 599.4391005569114 335.894908561271Q597.1877499732904 338.9267273472142 593.7356790784046 338.9267273472142L593.7356790784046 338.9267273472142Q587.2517893975757 338.9267273472142 587.2517893975757 331.5723154407184L587.2517893975757 331.5723154407184Q587.2517893975757 318.3944100245893 598.8087223934975 309.5090797212313Q610.3656553894194 300.6537674256548 630.2375765408487 296.3311743051022L630.2375765408487 296.3311743051022Q631.768494937711 287.4758620095257 637.5919884473444 281.95254857770846Q643.4454999647594 276.4592531536729 648.1883451942546 276.4592531536729Q652.9311904237497 276.4592531536729 655.872955186348 279.1608738540183Q658.7847019411647 281.8624945543636 658.7847019411647 286.39521372938754L658.7847019411647 286.39521372938754Q658.7847019411647 296.99157047629774 644.0758781281734 301.10403754237893ZM649.9293896455882 283.81366506016866L649.9293896455882 283.81366506016866Q645.1565264083115 283.81366506016866 644.2860041826445 293.539499581412L644.2860041826445 293.539499581412Q652.0906862058646 291.1380589588827 652.0906862058646 287.26573595505437L652.0906862058646 287.26573595505437Q652.0906862058646 283.81366506016866 649.9293896455882 283.81366506016866ZM745.2365643522165 373.9277244205774L745.2365643522165 373.9277244205774Q746.7374647412972 371.7664278603012 749.5591574727691 366.36318645961046L749.5591574727691 366.36318645961046Q756.4632992625407 354.0558032691482 757.8741456282766 354.0558032691482Q759.2849919940124 354.0558032691482 759.2849919940124 355.7668297127003L759.2849919940124 355.7668297127003Q759.2849919940124 366.36318645961046 748.2683831381597 382.5729106616826L748.2683831381597 382.5729106616826Q728.3664439789487 411.75041422541267 695.3166174113904 411.75041422541267L695.3166174113904 411.75041422541267Q686.0110349990897 411.75041422541267 678.2363709836515 407.4278211048601Q670.4617069682131 403.1052279843075 665.8989697854075 396.41121224900724L665.8989697854075 396.41121224900724Q656.6234053808885 382.783036716154 656.6234053808885 367.86408684869116L656.6234053808885 367.86408684869116Q656.6234053808885 330.281541106109 676.1651284467199 307.2577291376101Q695.736869520333 284.23391716911124 722.5429504693154 284.23391716911124L722.5429504693154 284.23391716911124Q732.6890370995014 284.23391716911124 739.1729267803303 290.177482709871Q745.6568164611591 296.12104825063085 745.6568164611591 305.1864866006787Q745.6568164611591 314.281942958508 741.1240972861352 322.0566069739464Q736.5913781111113 329.83127098938473 730.1975424536273 329.83127098938473Q723.8337248039248 329.83127098938473 723.8337248039248 326.37920009449897L723.8337248039248 326.37920009449897Q723.8337248039248 322.47685908288895 728.0362458933511 317.5238877989225Q732.2687849905587 312.54089850717435 732.2687849905587 307.5879272232079L732.2687849905587 307.5879272232079Q732.2687849905587 292.2187072390209 715.9389887573601 292.2187072390209Q699.639210531943 292.2187072390209 686.4312871080324 314.0718169040367Q673.2533816919033 335.894908561271 673.2533816919033 359.0087745531147L673.2533816919033 359.0087745531147Q673.2533816919033 375.00837270071565 682.3488380497326 387.43582792230427Q691.4142763997804 399.863283143893 707.834126656324 399.863283143893L707.834126656324 399.863283143893Q727.2857956988106 399.863283143893 745.2365643522165 373.9277244205774ZM789.0928737211564 332.8630897753279Q792.1246925070994 309.5090797212313 803.2613733940788 296.87149844517126Q814.398054281058 284.23391716911124 832.5589489889352 284.23391716911124Q850.6898256890307 284.23391716911124 850.6898256890307 296.7814444218264L850.6898256890307 296.7814444218264Q850.6898256890307 305.1864866006787 846.6974306540759 312.2107004215766Q842.7050356191211 319.2349142424746 836.011019883821 324.0077774797513L836.011019883821 324.0077774797513Q822.8331144676919 332.8630897753279 805.0924718687572 336.7654307869378L805.0924718687572 336.7654307869378Q800.7698787482046 373.9277244205774 792.3348185615708 389.9273225681784L792.3348185615708 389.9273225681784Q812.2367577207817 396.6213383034785 819.1408995105531 398.4524367781571Q826.0750593081062 400.2835352528356 833.7296512924182 400.2835352528356Q841.4142612845117 400.2835352528356 844.2059360082019 394.0397896342597Q847.0276287396737 387.76602600790216 848.3184030742831 387.76602600790216L848.3184030742831 387.76602600790216Q850.9299697512837 387.76602600790216 850.9299697512837 391.0079708483165L850.9299697512837 391.0079708483165Q850.9299697512837 401.1540574785025 843.3654317903166 408.2983433305269Q835.8008938293495 415.4126111747697 826.9155635259916 415.4126111747697L826.9155635259916 415.4126111747697Q817.8501251759437 415.4126111747697 810.495713269448 412.4108103966082Q803.1413013629523 409.378991610665 801.2201488649289 408.5084693849982Q799.2689783591239 407.63794715933136 793.3254128183642 404.84627243564114Q787.3818472776043 402.02457970416924 785.0104246628567 400.9439314240311L785.0104246628567 400.9439314240311Q776.7854905306941 409.5891176651363 762.9471889433695 409.5891176651363L762.9471889433695 409.5891176651363Q757.3338214882075 409.5891176651363 753.0112283676549 405.476650599055Q748.6886352471023 401.3641835329738 748.6886352471023 395.7508160778117L748.6886352471023 395.7508160778117Q748.6886352471023 383.44343288734945 762.7370628888982 383.44343288734945L762.7370628888982 383.44343288734945Q768.8007004607845 383.44343288734945 779.6071832621659 386.23510761103967L779.6071832621659 386.23510761103967Q783.6896323204656 373.267328249382 788.2523695032711 339.13685340168547L788.2523695032711 339.13685340168547Q785.8509288807419 339.34697945615676 781.8585338457871 339.34697945615676Q777.8661388108322 339.34697945615676 777.8661388108322 338.05620512154735L777.8661388108322 338.05620512154735Q777.8661388108322 333.94373805546604 789.0928737211564 332.8630897753279L789.0928737211564 332.8630897753279ZM805.7528680399528 330.4916671605803Q819.5911696272774 327.4598483746371 828.5365359461988 320.2255084992679Q837.5119202729016 312.9911686238986 837.5119202729016 301.31416359685034Q837.5119202729016 289.63715856980195 829.527130202992 289.63715856980195L829.527130202992 289.63715856980195Q812.0266316663104 289.63715856980195 805.7528680399528 330.4916671605803L805.7528680399528 330.4916671605803ZM774.6241939704179 396.41121224900724L774.6241939704179 396.41121224900724Q762.0766667177027 391.0079708483165 759.164919962886 391.0079708483165Q756.2531732080694 391.0079708483165 756.2531732080694 394.0397896342597Q756.2531732080694 397.0415904124212 758.9547939084147 399.20288697269746Q761.65641460876 401.3641835329738 765.9790077293127 401.3641835329738Q770.3016008498653 401.3641835329738 774.6241939704179 396.41121224900724ZM864.3180012218841 303.68558621159787Q864.3180012218841 308.8787015578173 866.899549891103 313.0812226472434Q869.5111165681036 317.3137617444512 869.5111165681036 319.77523838254365Q869.5111165681036 322.26673302841766 868.3103962568389 324.2179035342227Q867.1396939533558 326.1690740400277 865.1885234475509 326.1690740400277L865.1885234475509 326.1690740400277Q861.4963084904122 326.1690740400277 859.1248858756646 319.89531041367013Q856.7534632609171 313.62154678731247 856.7534632609171 306.71740499754105L856.7534632609171 306.71740499754105Q856.7534632609171 296.3311743051022 864.4380732530105 288.1362581807212Q872.0926652373224 279.91132404855864 883.979796318842 279.91132404855864L883.979796318842 279.91132404855864Q891.9946043965332 279.91132404855864 895.986999431488 287.59593404065214Q899.9793944664428 295.25052602496396 899.9793944664428 304.9763605462074Q899.9793944664428 314.7021950674507 899.4390703263739 323.257327285211Q898.8987461863047 331.7824414951897 898.4784940773621 336.43523270134006Q898.028223960638 341.0880239074904 896.7374496260285 351.11403850654995Q895.4466752914191 361.17007111339103 894.9964051746948 365.07241212500094L894.9964051746948 365.07241212500094Q912.2867776569052 365.07241212500094 931.3181945904493 347.5719135883194L931.3181945904493 347.5719135883194Q933.8997432596681 316.44323951878437 938.5525344658184 298.8226689509762Q943.2053256719688 281.20209838316805 947.9481709014641 274.0878305389253Q952.721034138741 266.94354468690085 958.2143295627765 266.94354468690085Q963.7376429945936 266.94354468690085 967.3097859206058 271.926533978649Q970.881928846618 276.87950526261545 970.881928846618 283.81366506016866L970.881928846618 283.81366506016866Q970.881928846618 309.29895366676 948.1883149637171 338.9267273472142L948.1883149637171 338.9267273472142Q946.867522621326 355.9769557671716 946.867522621326 370.3555814945653Q946.867522621326 384.73420722195897 951.1000617185337 398.2423107236858Q955.3025828079598 411.75041422541267 955.3025828079598 413.37138664561985Q955.3025828079598 414.99235906582703 952.9311601932121 415.9529353148388Q950.5597375784646 416.9435295716321 947.7380448469927 416.9435295716321L947.7380448469927 416.9435295716321Q940.1735068860256 416.9435295716321 935.4306616565306 413.0411885600221L935.4306616565306 413.0411885600221Q933.0592390417829 411.0900180542171 931.5283206449204 399.863283143893Q930.0274202558397 388.6365482335689 930.0274202558397 378.7906416811992Q930.0274202558397 368.9447351288294 930.6577984192537 357.507874164034L930.6577984192537 357.507874164034Q911.4462734390199 373.9277244205774 894.1559009568095 374.5881205917731L894.1559009568095 374.5881205917731Q893.9157568945567 377.5899213699346 893.7056308400853 384.6141351908325Q893.4955047856141 391.6383490117304 893.0752526766714 395.00036588327134Q892.6249825599472 398.3623827548123 891.3342082253378 402.6849758753649L891.3342082253378 402.6849758753649Q889.1729116650614 410.66976594527455 880.9479775328989 410.66976594527455L880.9479775328989 410.66976594527455Q875.9950062489323 410.66976594527455 875.9950062489323 402.14465173529584Q875.9950062489323 393.58951951753545 878.5765549181513 372.4268240314967L878.5765549181513 372.4268240314967Q868.8507203969081 368.3143569654154 868.8507203969081 357.92812627297656L868.8507203969081 357.92812627297656Q868.8507203969081 350.3635883120095 872.753061408518 345.08041894244525Q876.6253844123463 339.76723156509934 882.26876987529 339.76723156509934L882.26876987529 339.76723156509934Q884.1899223733134 319.89531041367013 884.1899223733134 309.0888276122886L884.1899223733134 309.0888276122886Q884.1899223733134 289.63715856980195 878.1563028092087 289.63715856980195L878.1563028092087 289.63715856980195Q864.3180012218841 289.63715856980195 864.3180012218841 303.68558621159787L864.3180012218841 303.68558621159787ZM963.947769049065 287.4758620095257L963.947769049065 287.4758620095257Q963.947769049065 284.23391716911124 962.9871928000532 281.5322964687658Q961.9965985432599 278.8306757684205 960.4956981541792 278.8306757684205L960.4956981541792 278.8306757684205Q954.4320605822928 278.8306757684205 949.4790892983264 325.7188039233034L949.4790892983264 325.7188039233034Q963.947769049065 303.68558621159787 963.947769049065 287.4758620095257ZM880.317599369485 358.5885224441721L881.6083737040944 346.70139136265243Q878.5765549181513 348.8626879229288 878.5765549181513 352.52488487228584Q878.5765549181513 356.21709982942446 880.317599369485 358.5885224441721L880.317599369485 358.5885224441721ZM1057.3337912576699 373.9277244205774L1057.3337912576699 373.9277244205774Q1058.8346916467508 371.7664278603012 1061.6563843782224 366.36318645961046L1061.6563843782224 366.36318645961046Q1068.5605261679939 354.0558032691482 1069.9713725337297 354.0558032691482Q1071.382218899466 354.0558032691482 1071.382218899466 355.7668297127003L1071.382218899466 355.7668297127003Q1071.382218899466 366.36318645961046 1060.3355920358313 382.5729106616826L1060.3355920358313 382.5729106616826Q1040.4636708844023 411.75041422541267 1007.3838263090621 411.75041422541267L1007.3838263090621 411.75041422541267Q998.108261904543 411.75041422541267 990.3335978891047 407.4278211048601Q982.5289158658848 403.1052279843075 977.9961966908609 396.41121224900724L977.9961966908609 396.41121224900724Q968.7206322863418 382.783036716154 968.7206322863418 367.86408684869116L968.7206322863418 367.86408684869116Q968.7206322863418 330.281541106109 988.2623553521734 307.2577291376101Q1007.8340964257862 284.23391716911124 1034.6401773747689 284.23391716911124L1034.6401773747689 284.23391716911124Q1044.7862640049548 284.23391716911124 1051.2701536857835 290.177482709871Q1057.7540433666127 296.12104825063085 1057.7540433666127 305.1864866006787Q1057.7540433666127 314.281942958508 1053.2213241915883 322.0566069739464Q1048.688605016565 329.83127098938473 1042.2947693590809 329.83127098938473Q1035.9309517093782 329.83127098938473 1035.9309517093782 326.37920009449897L1035.9309517093782 326.37920009449897Q1035.9309517093782 322.47685908288895 1040.1334727988042 317.5238877989225Q1044.366011896012 312.54089850717435 1044.366011896012 307.5879272232079L1044.366011896012 307.5879272232079Q1044.366011896012 292.2187072390209 1028.0362156628134 292.2187072390209Q1011.7064194296148 292.2187072390209 998.5285140134856 314.0718169040367Q985.3506085973567 335.894908561271 985.3506085973567 359.0087745531147L985.3506085973567 359.0087745531147Q985.3506085973567 375.00837270071565 994.4160469474044 387.43582792230427Q1003.5115033052338 399.863283143893 1019.9313535617772 399.863283143893L1019.9313535617772 399.863283143893Q1039.383022604264 399.863283143893 1057.3337912576699 373.9277244205774Z " fill="#fad744" transform="matrix(0.8167019808744986,0,0,0.8167019808744986,0,20.734061733324808)"/></g></svg>